<?xml version="1.0" encoding="UTF-8"?>
<svg version="1.1" viewBox="0 0 2000 2000" width="500" height="500" xmlns="http://www.w3.org/2000/svg">
<path transform="translate(0)" d="m0 0h2e3v2e3h-2e3z" fill="#FDFDFD"/>
<path transform="translate(886,287)" d="m0 0h49l28 2 33 4 33 6 32 8 26 8 32 12 25 11 30 15 24 14 16 10 16 11 18 14 10 8 13 11 12 11 8 7 10 9 11 11 7 8 10 11 9 11 11 14 14 19 11 17 8 13 12 21 8 15 11 23 13 32 10 28 10 35 2 9 6 3h15l13-4 7-2-2 5-3-1-11 8-7 8-4 9 1 14 6 18-1 2-8-13-4-4 3 26 2 25v59l-3 34-6 42 5 3 21 10 17 7 42 21 23 11 23 12 11 8v4l-6 2h-10l-15-3-18-6-22-9-50-16-29-8-2 2-6 21-10 29-13 31-13 27-13 23-9 15-7 11-12 17-10 13-11 14-13 15-9 10-11 12-24 24-11 9v8l4 29-1 5-5 1-5-5-6-22v-4l-14 10-18 13-15 10-28 17-27 14-13 6-6 2-8-7-12-12 1-2 10-3 24-10 29-14 22-12 18-11 18-12 9-7 3-1-14-43-13-43-9-29-10-34-6-29-8-43-8-32-5-23-7-41-7-24-5-13-3-5-18-7-17-6-27-9-31-9-8-2h-12l-10 9-14 18-6 9-8 14-8 19-16 32-11 19-9 14-7 14-4 9-2 5 1 5 8 20 14 49 6 22 5 16 3 16v18l-3 5-6 1-6-7-7-16-7-20-9-25-6-17-11-28-1-2-3 1-7 8-22 26-9 11-11 13-14 15-6 5-6-4-1-1 1-8 8-15 8-16 10-19 14-27 8-14 6-12 1-8-5-3v-4l5-2-3-10-4-9-7-19-8-18-12-29-7-19-9-21-12-36-11-35-5-17-4-14-6-19-2-16-16 1-16 3-16 6-21 10-16 8-15 6-11 4-26 16-26 14-14 8-6 3v8l-11 28-9 26-8 21-8 18-9 16-8 18-6 12-10 25-6 19-10 44-4 12-6 8-7 7-7 2-7-1-2-3v-14l5-35 6-23 8-26 10-31 8-35 10-32 3-18v-9l-3-5-5-2h-16l-4 2h-3l-1-5h-6l-24 8-24 7-27 9-11 2h-11v-6l9-6 30-15 52-25 29-13 35-17 9-5-2-5-1-4 8-9 5-5 6-13 12-30 15-39 7-20 8-22 8-24 18-45 7-20 8-21 6-17 7-19 12-29 7-18 8-22 10-29 11-29 4-8 4-3 4 1 8 24 14 55 5 15 5 25 8 30 7 22 5 16 9 35 8 30 10 34 3 3 5 2h7l20-6 16-7 19-12 17-10 18-6 10-2 11-1h9l12 3 7 8 3 7 1 8-3 14-6 9-9 8-31 14-26 10-33 16-19 7-8 10-2 11v10l3 17 4 16 4 20 12 44 8 42 5 21 8 23 8 16 7 11 4 4 4 1 5-6 10-17 9-15 13-26 10-19 8-18 2-7-3-7-5-4-17-8-21-8-12-6-9-7-7-8-3-7v-13l4-8 8-6 5-2h16l19 5 38 13 12 2h14l8-3 6-10 7-20 14-26 8-17 7-11 11-18 9-20 10-18 9-14 17-33 9-14 6-9 10-22 6-8 4-2h28l1 1 2 23 3 34 1 17v78l5 42 3 90 2 15 5 10 7 6 20 11 29 19 11 5 37 12 33 10 24 9 27 12 23 10 12 5 5 1 1-11 6-38 3-35v-50l-2-35-3-20-8-5-5-1h-12l-18 6-5 1 3-3 9-5 8-6h2l2-4 3-5 3-8-2-16-5-13 1-3 11 16 5 6 1-1-7-25-12-36-8-21-13-29-12-23-13-22-16-24-12-16-10-13-12-14-7-8-14-15-14-14-8-7-10-9-10-8-18-14-16-11-17-11-22-13-14-8-23-11-29-12-28-10-28-8-25-6-36-6-29-3-13-1h-54l-36 3-37 6-30 7-29 8-30 11-24 10-29 14-24 14-10 6-15 10-17 12-18 14-13 11-12 11-8 7-18 18-7 8-12 14-13 16-13 18-16 24-12 20-11 20-11 23-11 27-10 28-8 28-7 30-5 30-3 28-1 14v52l2 27 5 37 7 33 8 30 11 32 12 29 12 26 10 17 13 22 13 19 14 19 9 11 12 14 12 13 9 10 30 28 11 9 18 14 16 11 15 10 20 12 18 10 24 12 31 13 6 2-1 4-3 4 7 2 11 9 9 5 7 11 9 6 3 5 9 5 5 2 10 10 7 1 9 1 6-4 5-6 9-11 8-8 8-13 6-10 9-11 6-6 9-4 7-10 15-10 13-9 6-11 10-6 10-9 6-7 10-16 5-6 4-2h14l5 3 11 12 10 8 10 7 7 5 7 14 7 7 8 13 7 8 8 7 4 9 5 5 9 6 21 21 10 6 9 9 6 4 4 4 4 7 10 12 9 6 5-1 10-10 14-9 6-5 4-6 3-8 8-4 7-10 8-17 5-9 4-4 13-2 8 1 15 5 8 7 5 6 4 4 2 7 11 10 3 6 1 5 9 10 8 12 3 9 6 7 11 7 5 6 7 14 9 12 7 11 10 7 19 11 16 8 13 6 20 9 12 8 15 14 8 10 9 11 11 14 12 12 8 7 13 12 14 11 13 10 19 13 16 9 14 6 16 4 1 5 1 4 5 5 16 7 21 6 5 1v1h-7l-30-6-7-2-13-2-12-5-19-9-14-7h-3v5h-2l-4-6-5-5-8-10-9-8-30-20-3-1 5 16 6 16-1 3-8-1v5l-4-2-8-14-13-24-8-11-16-24-9-15-8-12-5-6-3-1-3 13v8l8 16 6 11 7 12v3l-7-8-8-10-4-8-6-2-1 3-4 1-11-23-10-20-12-14-8-8-3-1-1 4 8 20 2 4v7l-4 1-8-6h-3l1 9 10 24 6 13 9 12-3 1-10-6-8-7-9-11-10-24-9-24-5-14-5-17-3-10-4-1-2 18-1 8-1 28v18h-2l-5-17-2-9-2-20-2-8v-8l-3-11-2-12-4-13-3-1-3 1-2-8-2-25-6-12-3-3h-3l-3 5-2 1-3-12-3-16-6-10-6-7-12-6-6-1-7 3 1 5 1 2-7 8-5 20-2 9-7 12-4 4h-2l1-6 4-10 2-13v-11l-2-2-5 1-5 6-6 12-6 10-11 12-8 6-8 3h-20l8 16 9 14 13 16 2 5-1 6 4 8 10 10 13 9-1 10 8 6 8 4 3 5 7 8 19 12 6 3 21 1h14l10 3 4 4v2l4 2 7 8 9 8 26 15 7 3 18 12 11 6-3 1-24-13-23-10-6-6-6-1-2 6-3 1-8-6-9-9-4-2-7 1-10-9-14-8-20-7-9-2-10-5-11-2-5 1-6 4-12 1-3 8-3 5h-10l-8 7-7 7-5 3-5-1-14 11-8 6 2-5 4-6 8-7 8-10v-6l-1-4 1-1 11-1 12-10 5-8 3-10v-9l-5-12-11-16-9-11-6-7-8-7h-8l-3 3-3 14v24l-2 9-5 9-11 11-4 1 2-6 9-15 2-6v-10l-1-4-5-1-7 8-10 13-3 3h-3l2-5 9-12 5-10 2-6 6-9 1-5-4-28-6-26-7-17-7-6-9-6-14-14-4-2 2 11 4 9 1 6-8-6h-3l1 8 6 21 4 15 3 9-5-1-5-7-6-16-12-23-8-12v-2h-5l-4 5-2 6h-2l-1-11-2-17-3-13-6-10-14-16-6-5h-13l-5-5-5-1-2 6-1 25-2 18-1 28-1 2h-7l-5 26-7 27-1 8-1 23-5-4-3-5v-23l3-16 3-14 1-19-4-9-3-2h-5l-5 5-6 12-6 11-10 15-5 8-11-1-13 3-4-1 4-4 10-7 6-7 8-15 6-10 8-16 10-15 16-22 11-17 8-13 5-13v-6l-6-7 5-15 3-8-1-5-5 3-7 9-8 16-12 26-5 15-8 19-7 13-6 5-6 7-6 3 3-9 12-22 3-7-10 4-10 7-9 8-7 8-10 11-10 13-8 9-10 8-3 4 1 4 7 9 7 7 7 5 4 9 5 4 11 2 9 4 11 4 14 7 14 10 9 6 9 8 11 7 17 11 17 8 48 16 17 8 14 10 13 11 8 7 13 13 8 7 5 9 7 2 7 8 6 6-1 2-18-11-11-7-12-9-16-10h-8l-7-7v-2l-4-2-10-9-8-5h-6l1 7 7 10 1 3-4-2-13-12-9-8-7-5-21-5-9-3-1 3 4 11 8 17 10 15 7 11 1 3h-2v-2l-4-2-9-10-10-12-13-22-20-28-13-15-6-7-2-1v-2l-4-2-5-4-6-1-1 7 4 20v3l-8-1v14l3 15 4 19 2 7v6l-4-4-7-12-10-27-10-36-8-20-8-7-3-2h-3l-3 7-2 10-2-3-4-16-3-9-7-6-7-3-2 1v9l-3-2-4-7-9-14-6-8-10-6-14-7-9-5-6-8-6-11-6-4h-5l1 14 7 14 3 10 5 3 2 1 4 8 4 15 1 9-2 5-2-1-4-15-4-10v-2l-5 1-7 16-2 1v-35l-2-7-6-10-3-14-6-9-6-10-2-6-4-1-2 5-2 3-2 11v22l3 18 7 21v5h-2l-9-12-5-4-5 1-3 4-2 4v14l5 20-1 3-3-1-5-9-4-3h-2l-4 8-6 25-5 16-4 8-3 2 3-18 4-27 7-29 4-22v-10l-1-2-5 1-7 5-4 18-6 11-1 11v12l-1 11-5 8-7 8-4 9-6 21-3 20h-2l-4-10-4-2-14 20-8-1 3-10 10-25 4-17v-13l-5-3-5 2-10 16-8 19-6 15-8 16-5 1-3-9-7-8-4-1-8 10-9 14-6 9-4 8-13 17-6 8-14 20-7 12-3 1 4-16 1-10-13 1-13 4-16 8-17 9-4-1 3-5 8-7 10-8 15-10 17-12 13-10 13-11 8-10 5-11v-7l-3-7-11-7-10-3-5-4-4-8-6-16-5-5-3 3-4 14-3 19-7 30-4 11-6 10-8 12-5 6-1-4 5-16 2-13v-19l-2-6-6 1-8 5-13 14-5 5-3 4-6 2-10 10-8 7-27 27-10 13-6 12-5 6-3-1-1-5-5 2-11 8-12 7-2-1 7-8 1-4-8 1-10 2-9 2-16 8-29 14-19 8-6 1 4-3 17-9 21-12 14-9 14-12 5-6 3-10 14-7 11-3 9-7 11-9 2-3 2-8 4-4 8-4 4-5 3-8 9-9 5-3 8-3 7-10 6-8h2v-2l8-5 12-6 4-3 15-1 7-5 4-7 6-4 12-12 8-4 16-1 5 4 4 4 28 12 5 1 16 1 12 4 4 3h2l8-15 12-14 21-21 8-11 6-12 8-20 8-15 12-16 22-28 5-5 1-3-9-3-20-9-23-11-23-13-18-11-12-8-14-10-15-12-14-11-15-13-12-11-8-7-16-16-7-8-9-10-9-11-10-13-14-19-15-23-9-15-10-18-9-17-13-29-11-29-11-34-8-32-6-32-4-31-2-24v-60l3-36 5-33 8-37 10-35 11-31 14-32 8-16 12-23 14-23 8-12 13-18 14-18 9-11 13-15 16-17 19-19 8-7 14-12 30-23 18-12 19-12 25-14 28-14 31-13 44-15 41-10 33-6 38-4z" fill="#D81712"/>
<path transform="translate(886,287)" d="m0 0h49l28 2 33 4 33 6 32 8 26 8 32 12 25 11 30 15 24 14 16 10 16 11 18 14 10 8 13 11 12 11 8 7 10 9 11 11 7 8 10 11 9 11 11 14 14 19 11 17 8 13 12 21 8 15 11 23 13 32 10 28 10 35 2 9 6 3h15l13-4 7-2-2 5-3-1-11 8-7 8-4 9 1 14 6 18-1 2-8-13-4-4 3 26 2 25v59l-3 34-6 40-1 2-4-1v-7l6-36 3-27 1-15v-50l-2-35-3-20-8-5-5-1h-12l-18 6-5 1 3-3 9-5 8-6h2l2-4 3-5 3-8-2-16-5-13 1-3 11 16 5 6 1-1-7-25-12-36-8-21-13-29-12-23-13-22-16-24-12-16-10-13-12-14-7-8-14-15-14-14-8-7-10-9-10-8-18-14-16-11-17-11-22-13-14-8-23-11-29-12-28-10-28-8-25-6-36-6-29-3-13-1h-54l-36 3-37 6-30 7-29 8-30 11-24 10-29 14-24 14-10 6-15 10-17 12-18 14-13 11-12 11-8 7-18 18-7 8-12 14-13 16-13 18-16 24-12 20-11 20-11 23-11 27-10 28-8 28-7 30-5 30-3 28-1 14v52l2 27 5 37 7 33 8 30 11 32 12 29 12 26 10 17 13 22 13 19 14 19 9 11 12 14 12 13 9 10 30 28 11 9 18 14 16 11 15 10 20 12 18 10 24 12 31 13 6 2-1 4-3 4 7 2 11 9 9 5 7 11 9 6 3 5 9 5 5 2 10 10 7 1 9 1 6-4 5-6 9-11 8-8 8-13 6-10 9-11 6-6 9-4 7-10 15-10 13-9 6-11 10-6 10-9 6-7 10-16 5-6 4-2h14l5 3 11 12 10 8 10 7 7 5 7 14 7 7 8 13 7 8 8 7 4 9 5 5 9 6 21 21 10 6 9 9 6 4 4 4 4 7 10 12 9 6 5-1 10-10 14-9 6-5 4-6 3-8 8-4 7-10 8-17 5-9 4-4 13-2 8 1 15 5 8 7 5 6 4 4 2 7 11 10 3 6 1 5 9 10 8 12 3 9 6 7 11 7 5 6 7 14 9 12 7 11 10 7 19 11 16 8 13 6 20 9 12 8 15 14 8 10 9 11 11 14 12 12 8 7 13 12 14 11 13 10 19 13 16 9 14 6 16 4 1 5 1 4 5 5 16 7 21 6 5 1v1h-7l-30-6-7-2-13-2-12-5-19-9-14-7h-3v5h-2l-4-6-5-5-8-10-9-8-30-20-3-1 5 16 6 16-1 3-8-1v5l-4-2-8-14-13-24-8-11-16-24-9-15-8-12-5-6-3-1-3 13v8l8 16 6 11 7 12v3l-7-8-8-10-4-8-6-2-1 3-4 1-11-23-10-20-12-14-8-8-3-1-1 4 8 20 2 4v7l-4 1-8-6h-3l1 9 10 24 6 13 9 12-3 1-10-6-8-7-9-11-10-24-9-24-5-14-5-17-3-10-4-1-2 18-1 8-1 28v18h-2l-5-17-2-9-2-20-2-8v-8l-3-11-2-12-4-13-3-1-3 1-2-8-2-25-6-12-3-3h-3l-3 5-2 1-3-12-3-16-6-10-6-7-12-6-6-1-7 3 1 5 1 2-7 8-5 20-2 9-7 12-4 4h-2l1-6 4-10 2-13v-11l-2-2-5 1-5 6-6 12-6 10-11 12-8 6-8 3h-20l8 16 9 14 13 16 2 5-1 6 4 8 10 10 13 9-1 10 8 6 8 4 3 5 7 8 19 12 6 3 21 1h14l10 3 4 4v2l4 2 7 8 9 8 26 15 7 3 18 12 11 6-3 1-24-13-23-10-6-6-6-1-2 6-3 1-8-6-9-9-4-2-7 1-10-9-14-8-20-7-9-2-10-5-11-2-5 1-6 4-12 1-3 8-3 5h-10l-8 7-7 7-5 3-5-1-14 11-8 6 2-5 4-6 8-7 8-10v-6l-1-4 1-1 11-1 12-10 5-8 3-10v-9l-5-12-11-16-9-11-6-7-8-7h-8l-3 3-3 14v24l-2 9-5 9-11 11-4 1 2-6 9-15 2-6v-10l-1-4-5-1-7 8-10 13-3 3h-3l2-5 9-12 5-10 2-6 6-9 1-5-4-28-6-26-7-17-7-6-9-6-14-14-4-2 2 11 4 9 1 6-8-6h-3l1 8 6 21 4 15 3 9-5-1-5-7-6-16-12-23-8-12v-2h-5l-4 5-2 6h-2l-1-11-2-17-3-13-6-10-14-16-6-5h-13l-5-5-5-1-2 6-1 25-2 18-1 28-1 2h-7l-5 26-7 27-1 8-1 23-5-4-3-5v-23l3-16 3-14 1-19-4-9-3-2h-5l-5 5-6 12-6 11-10 15-5 8-11-1-13 3-4-1 4-4 10-7 6-7 8-15 6-10 8-16 10-15 16-22 11-17 8-13 5-13v-6l-6-7 5-15 3-8-1-5-5 3-7 9-8 16-12 26-5 15-8 19-7 13-6 5-6 7-6 3 3-9 12-22 3-7-10 4-10 7-9 8-7 8-10 11-10 13-8 9-10 8-3 4 1 4 7 9 7 7 7 5 4 9 5 4 11 2 9 4 11 4 14 7 14 10 9 6 9 8 11 7 17 11 17 8 48 16 17 8 14 10 13 11 8 7 13 13 8 7 5 9 7 2 7 8 6 6-1 2-18-11-11-7-12-9-16-10h-8l-7-7v-2l-4-2-10-9-8-5h-6l1 7 7 10 1 3-4-2-13-12-9-8-7-5-21-5-9-3-1 3 4 11 8 17 10 15 7 11 1 3h-2v-2l-4-2-9-10-10-12-13-22-20-28-13-15-6-7-2-1v-2l-4-2-5-4-6-1-1 7 4 20v3l-8-1v14l3 15 4 19 2 7v6l-4-4-7-12-10-27-10-36-8-20-8-7-3-2h-3l-3 7-2 10-2-3-4-16-3-9-7-6-7-3-2 1v9l-3-2-4-7-9-14-6-8-10-6-14-7-9-5-6-8-6-11-6-4h-5l1 14 7 14 3 10 5 3 2 1 4 8 4 15 1 9-2 5-2-1-4-15-4-10v-2l-5 1-7 16-2 1v-35l-2-7-6-10-3-14-6-9-6-10-2-6-4-1-2 5-2 3-2 11v22l3 18 7 21v5h-2l-9-12-5-4-5 1-3 4-2 4v14l5 20-1 3-3-1-5-9-4-3h-2l-4 8-6 25-5 16-4 8-3 2 3-18 4-27 7-29 4-22v-10l-1-2-5 1-7 5-4 18-6 11-1 11v12l-1 11-5 8-7 8-4 9-6 21-3 20h-2l-4-10-4-2-14 20-8-1 3-10 10-25 4-17v-13l-5-3-5 2-10 16-8 19-6 15-8 16-5 1-3-9-7-8-4-1-8 10-9 14-6 9-4 8-13 17-6 8-14 20-7 12-3 1 4-16 1-10-13 1-13 4-16 8-17 9-4-1 3-5 8-7 10-8 15-10 17-12 13-10 13-11 8-10 5-11v-7l-3-7-11-7-10-3-5-4-4-8-6-16-5-5-3 3-4 14-3 19-7 30-4 11-6 10-8 12-5 6-1-4 5-16 2-13v-19l-2-6-6 1-8 5-13 14-5 5-3 4-6 2-10 10-8 7-27 27-10 13-6 12-5 6-3-1-1-5-5 2-11 8-12 7-2-1 7-8 1-4-8 1-10 2-9 2-16 8-29 14-19 8-6 1 4-3 17-9 21-12 14-9 14-12 5-6 3-10 14-7 11-3 9-7 11-9 2-3 2-8 4-4 8-4 4-5 3-8 9-9 5-3 8-3 7-10 6-8h2v-2l8-5 12-6 4-3 15-1 7-5 4-7 6-4 12-12 8-4 16-1 5 4 4 4 28 12 5 1 16 1 12 4 4 3h2l8-15 12-14 21-21 8-11 6-12 8-20 8-15 12-16 22-28 5-5 1-3-9-3-20-9-23-11-23-13-18-11-12-8-14-10-15-12-14-11-15-13-12-11-8-7-16-16-7-8-9-10-9-11-10-13-14-19-15-23-9-15-10-18-9-17-13-29-11-29-11-34-8-32-6-32-4-31-2-24v-60l3-36 5-33 8-37 10-35 11-31 14-32 8-16 12-23 14-23 8-12 13-18 14-18 9-11 13-15 16-17 19-19 8-7 14-12 30-23 18-12 19-12 25-14 28-14 31-13 44-15 41-10 33-6 38-4z" fill="#1B1A1B"/>
<path transform="translate(886,287)" d="m0 0h49l28 2 33 4 33 6 32 8 26 8 32 12 25 11 30 15 24 14 16 10 16 11 18 14 10 8 13 11 12 11 8 7 10 9 11 11 7 8 10 11 9 11 11 14 14 19 11 17 8 13 12 21 8 15 11 23 13 32 10 28 10 35 2 9 6 3h15l13-4 7-2-2 5-3-1-11 8-7 8-4 9 1 14 6 18-1 2-8-13-4-4 3 26 2 25v59l-3 34-6 40-1 2-4-1v-7l6-36 3-27 1-15v-50l-2-35-3-20-8-5-5-1h-12l-18 6-5 1 3-3 9-5 8-6h2l2-4 3-5 3-8-2-16-5-13 1-3 11 16 5 6 1-1-7-25-12-36-8-21-13-29-12-23-13-22-16-24-12-16-10-13-12-14-7-8-14-15-14-14-8-7-10-9-10-8-18-14-16-11-17-11-22-13-14-8-23-11-29-12-28-10-28-8-25-6-36-6-29-3-13-1h-54l-36 3-37 6-30 7-29 8-30 11-24 10-29 14-24 14-10 6-15 10-17 12-18 14-13 11-12 11-8 7-18 18-7 8-12 14-13 16-13 18-16 24-12 20-11 20-11 23-11 27-10 28-8 28-7 30-5 30-3 28-1 14v52l2 27 5 37 7 33 8 30 11 32 12 29 12 26 10 17 13 22 13 19 14 19 9 11 12 14 12 13 9 10 30 28 11 9 18 14 16 11 15 10 20 12 18 10 24 12 31 13 6 2-1 4-4 3-13 2-12 6-11 7-8 7h-8l-23-10-25-12-23-13-18-11-12-8-14-10-15-12-14-11-15-13-12-11-8-7-16-16-7-8-9-10-9-11-10-13-14-19-15-23-9-15-10-18-9-17-13-29-11-29-11-34-8-32-6-32-4-31-2-24v-60l3-36 5-33 8-37 10-35 11-31 14-32 8-16 12-23 14-23 8-12 13-18 14-18 9-11 13-15 16-17 19-19 8-7 14-12 30-23 18-12 19-12 25-14 28-14 31-13 44-15 41-10 33-6 38-4z" fill="#020202"/>
<path transform="translate(1229,914)" d="m0 0h8l15 4 36 12 27 8 40 13 16 6 26 8 26 7 12 4 1 1-1 9-9 27-11 26-12 26-12 22-14 23-13 19-12 16-13 16-9 11-12 13-7 8-16 16-8 7-10 9-9 7h-3l-1-11-2-15-2-19-3-17-5-51-6-44-6-46-5-41-14-50v-16l3-5z" fill="#FEFEFE"/>
<path transform="translate(1038,83)" d="m0 0h21l16 4 14 7 10 8 8 10 6 13 3 10 1 8v10l-3 16-4 11-6 11-9 10-10 7-10 5-10 3-7 1h-14l-15-3-13-5-11-7-11-11-6-10-5-16-1-7v-12l3-16 6-14 8-11 10-10 14-8 9-3z" fill="#030203"/>
<path transform="translate(1586,428)" d="m0 0 5 5 14 24 8 16 3 9 1 6v14l-3 13-7 14-11 12-8 7-14 7-12 4-5 1h-17l-12-3-10-5-10-8-7-7-11-17-10-17-4-7 1-3 16-9 75-45z" fill="#030303"/>
<path transform="translate(743,539)" d="m0 0h6l5 4 4 16v13l5 13 6 15 12 37 10 31 1 8-6 4-19 7-24 9-24 11-17 8-16 5-7-1h-13l-3-3 4-10 10-22 9-17 11-23 8-16 10-21 7-19 7-25 4-11 6-11z" fill="#FEFEFE"/>
<path transform="translate(877,72)" d="m0 0h32l13 3 8 4 8 9 5 11 1 5v14l-4 13-6 9-9 6-4 2 2 5 14 25 10 17 3 5v2h-28l-3-3-6-11-13-24-6-10-12-1v50l-25 1-1-1-2-86v-44z" fill="#030303"/>
<path transform="translate(342,314)" d="m0 0h12l11 4 10 7 7 8 5 11 1 4v11l-3 11 11 2 47 11v4l-12 12-6 7-16-4-37-10-4 2-4 5v3l8 7 17 16 9 8-2 4-14 15-5-2-9-9-8-7-16-15-10-9-12-11-26-24-10-9 2-4 9-10 7-8 12-13 5-6 11-8z" fill="#030303"/>
<path transform="translate(442,224)" d="m0 0h13l14 5 9 7 6 9 4 9 1 4v14l-3 9-3 5 6 2 33 14 17 7v2l-12 9-9 7-7-1-27-13-18-8-4 2-5 4 1 4 14 18 12 16-1 4-14 11-5 2-6-7-12-16-10-13-16-21-33-44-1-3 12-9 17-13 13-9z" fill="#030203"/>
<path transform="translate(705,1790)" d="m0 0h10l5 3 5 6 2 13h2l2-4 6-8 8-6 5-3 4-1h11l7 6 3 8 1 9 7-10 9-8 7-4 4-1h12l6 4 4 8 1 9-3 21-3 18v13l1 1 7-1 3-1 1 3-6 11-5 4-12 5h-7l-8-4-5-7-2-7v-9l6-29v-11l-3-3-8 1-2 4-5 8-4 12v12l1 4v13l-4 10-7 5-8 1-9-4-5-5-2-5v-10l5-26 1-8v-11l-7-1-4 1-2 4-5 8-4 11v10l1 6v15l-4 8-7 6-7 1-8-3-7-8-2-8v-7l7-32 1-12-1-2h-12l1-6 6-9 9-6z" fill="#030303"/>
<path transform="translate(1187,116)" d="m0 0 5 1 4 6 13 40 9 27 5-1 60-26 8-2 4 2-1 6-18 41-19 43-13 30-3 2-16-8-6-2 1-5 18-41 8-18 1-2-5 2-31 12-5 2-4-1-15-41-2 1-5 14-18 40-4 9-6-1-13-6-5-2 1-6 16-36 15-34 18-41z" fill="#030303"/>
<path transform="translate(766,85)" d="m0 0h11l13 4 11 10 7 14 2 10-1 12-3 10-7 10-9 6-13 4-16 3h-5l5 30 3 16-1 5-23 4-3-9-23-115v-3l12-3 34-7z" fill="#030303"/>
<path transform="translate(1051,1790)" d="m0 0h9l6 3 5 5 4 7v2h2v-9l3-5 9-3h9l7 3 4 4-1 9-6 20-4 23v9l2 7 5-2h4l-3 10-9 8-12 4-9-1-6-4-3-4-1-10-1-1-6 10-10 7-5 2h-9l-10-6-5-6-4-11-1-5v-22l4-15 6-12 9-9 10-6z" fill="#030303"/>
<path transform="translate(392,1790)" d="m0 0h9l8 4 9 12v-7l3-6 9-3h9l7 3 4 4-1 9-6 20-4 23v10l2 6 9-3 1 2-5 10-7 6-9 4-10 1-8-4-4-5-1-11-3 3-4 7-10 7-5 2h-9l-9-5-6-7-3-8-2-8v-21l4-16 6-12 8-8 11-7z" fill="#030303"/>
<path transform="translate(541,155)" d="m0 0 5 2 12 11 11 9 11 10 8 7 10 9 11 9 12 11 8 7 14 12 9 8-3 3-19 10h-5l-9-8-4 1-34 17 1 15-24 13h-3l-8-95-3-37z" fill="#030303"/>
<path transform="translate(1537,603)" d="m0 0h14l119 5 14 1-6 7-16 15-8 7-12 11-10 9-11 10-8 7-10 9-12 11-10 9-5 4-3-3-7-21v-4l7-7h2l-1-8-11-30-1-3-14-1-2-1-9-25z" fill="#030303"/>
<path transform="translate(1139,688)" d="m0 0 5 1 3 4 1 4 3 40 1 37 4 26v17l-3 6-6 2-19-3-16-5-9-4-13-7-8-7-3-8 1-9 5-10 12-15 12-23 11-23 8-12 8-9z" fill="#FEFEFE"/>
<path transform="translate(250,411)" d="m0 0 7 4 14 9-1 4-14 22-4 6v3l18 11h3l10-16 7-11 6 3 10 7 6 4-1 4-16 24v2l16 10 2 2 4-1 13-20 7-11 2-1 20 14v3l-27 41-8 12-5-1-11-8-16-10-66-44-11-7 1-4 15-23 12-18z" fill="#030303"/>
<path transform="translate(1347,198)" d="m0 0 5 2 11 8 38 26-1 4-10 14-2 3-5-1-11-8-17-11-3 3-11 17-1 2 5 2 18 12 5 5-13 19-3 1-16-11-10-7-2-1-2 5-9 13-2 4 33 22-2 5-10 15-3 3-18-13-19-13-17-12 1-4 14-21 14-20 11-16 13-19 16-23z" fill="#030203"/>
<path transform="translate(1648,1790)" d="m0 0h8l9 3 5 6 1 3v14l-5 25v15l1 2h5l7-6 7-13 5-18 1-10-1-12 8-7 6-2h8l6 4 5 6 1 4v8l-6 23-5 20 1 8 2 2 6-1 4-1 1 2-4 9-4 5-10 5-9 1-10-5-6-7-2-11-2 1-4 8-8 7-12 6-5 1-9-3-5-4-4-9-1-3v-17l6-30v-7l-7-2-1 3-4-1 2-8 4-6 6-5z" fill="#030303"/>
<path transform="translate(283,1749)" d="m0 0h8l6 4 3 5 1 4v16l-6 31-9 31-2 5v4l18 5 6 1h12l10-3 9-6 4 5 2 7v8l-3 9-6 7-7 3h-13l-17-4-23-7-6-1v2l-10 7-5 2h-7l-8-4-4-5-2-6v-13l4-8 5-4 4-2h11l4-16 5-27 2-15 1-16-1-9 6-7z" fill="#030303"/>
<path transform="translate(635,1789)" d="m0 0h14l10 2 9 6 6 10 1 4v10l-4 10-8 9-12 6-4 1h-14l-10-3-2-1 5 13 6 5 7 2 11-1 14-7 6-5h1v9l-5 10-7 7-11 6-17 3h-8l-14-3-9-6-7-8-4-9-2-10v-8l4-16 6-11 9-10 11-8 10-5z" fill="#030303"/>
<path transform="translate(1201,1789)" d="m0 0h14l10 2 9 6 6 10 1 4v10l-4 10-8 9-12 6-5 1h-12l-10-3-2-1 2 9 4 6 6 4 11 1 10-3 10-6 7-4-1 9-5 10-7 7-9 5-12 3-16 1-10-2-10-5-9-10-4-9-2-11 1-13 4-12 6-10 9-10 14-9 9-4z" fill="#030303"/>
<path transform="translate(1387,1789)" d="m0 0h13l10 2 9 6 6 10 1 4v10l-4 10-8 9-12 6-4 1h-14l-12-4 5 13 6 5 8 2 10-1 14-7 6-5h2l-1 9-5 10-7 7-11 6-18 3h-8l-10-2-10-5-9-10-5-12-1-14 2-10 5-13 8-11 10-9 11-6 8-3z" fill="#030303"/>
<path transform="translate(540,1789)" d="m0 0h16l10 4 5 5 4 6v7l-5 6-13 5-4-1-3-10-5-6-7-1-5 5 1 7 5 6 16 9 11 6 7 7 3 7-1 9-4 8-8 7-12 6-16 4-11 1-14-2-10-5-6-7-2-6 1-7 4-6 8-6 9-2 2 3 2 13 5 8 5 2 9-1 3-3v-8l-5-5-24-16-6-5-4-10v-9l4-9 8-7 11-6z" fill="#030303"/>
<path transform="translate(1481,1789)" d="m0 0h16l10 4 7 7 2 4v7l-4 5-8 4-8 2-2-1-4-12-6-5-7 1-3 4 1 7 6 7 25 13 8 8 3 7-1 10-5 8-7 6-12 6-16 4-12 1-16-3-9-6-4-5-2-6 1-7 3-5 7-6 5-2h7l3 15 4 7 6 3 9-1 3-4v-7l-5-5-27-18-4-5-3-8v-9l3-7 6-7 12-7 11-3z" fill="#030303"/>
<path transform="translate(155,580)" d="m0 0 5 1 19 7-1 8-7 19v4l47 16 28 10 21 7 1 3-5 14-4 9-35-12-43-15-18-6h-2l-10 29-3 1-11-5-10-3 1-8 20-59z" fill="#030303"/>
<path transform="translate(1436,264)" d="m0 0 5 1v2l4 2 7 7 8 7 7 7 8 7 13 13 8 7 8 8-6 7-8 8-2 3-4-1-16-15-7-5-2 4-12 13-9 9-7 8-12 12-7 8-16 17-4 4-4-2-15-14 1-4 14-14 7-8 11-11 7-8 8-8 7-8 14-14-1-4-10-10-8-7-3-4 14-14z" fill="#030303"/>
<path transform="translate(1043,109)" d="m0 0h14l12 4 9 7 6 8 4 10 1 5v10l-3 12-5 9-7 8-9 5-11 3h-10l-13-4-9-6-7-9-4-10-1-5v-11l4-13 6-10 9-8 9-4z" fill="#FEFEFE"/>
<path transform="translate(1591,1759)" d="m0 0h9l8 3 3 3-1 9-5 20h13l2 1v10l-2 6h-16l-3 15-2 16v13l2 5 5 3 10-1 5-2-1 5-6 9-7 6-10 4-10 1-12-5-5-6-3-9v-16l4-27 1-12-4 1h-8l2-4 10-8 3-2 5-24 2-10 7-3z" fill="#030303"/>
<path transform="translate(984,1753)" d="m0 0h9l6 4 4 6 2 8v9l-4 24-8 37-2 12 1 11 4 1 5-3h2l-1 7-5 8-9 6-6 2-9-1-7-4-5-6-2-4-1-6v-11l3-17 8-37 2-15v-12l-1-7 4-6 7-5z" fill="#030303"/>
<path transform="translate(927,1753)" d="m0 0h9l6 4 4 6 2 9-1 15-6 31-6 28-1 12 1 7 6-1 6-2-3 10-7 8-12 5-9-1-8-5-4-5-3-10v-10l2-14 9-41 2-12v-16l-1-7 6-7z" fill="#030303"/>
<path transform="translate(1271,1790)" d="m0 0h11l6 4 5 8 1 9v2h2l2-6 6-8 7-6 8-3h6l5 5 3 9-2 13-4 8-8 6h-7l-4-7-4-2h-6l-6 5-3 8v13l1 7v14l-4 9-6 5-8 2-8-3-7-8-2-7v-9l6-30 1-13-3-4-6 1-4 2 1-7 5-8 7-6z" fill="#030303"/>
<path transform="translate(1437,978)" d="m0 0 5 1-2 11-12 36-11 28-9 20-10 19-12 22-13 21-14 20-10 13-11 14-13 15-9 10-11 12-24 24-11 9-2-1-2-19 15-13 10-9 12-11 13-13 7-8 12-14 13-16 10-13 12-17 12-19 10-17 8-14 11-23 12-28 10-28 3-11z" fill="#060606"/>
<path transform="translate(1577,464)" d="m0 0 4 4 8 16 1 3v16l-7 14-8 8-11 6-9 2h-15l-14-7-7-8-7-11 1-5 29-17 13-8z" fill="#FEFEFE"/>
<path transform="translate(1534,362)" d="m0 0 6 5 10 13 1 3-14 11-17 14-14 11-13 11-10 8-16 13-14 11-4 1-8-10-6-8 2-4 17-14 14-11 12-10 11-9 32-26z" fill="#030303"/>
<path transform="translate(187,514)" d="m0 0 19 9 52 26 23 11 22 11-1 5-8 17-5 1-19-10-26-13-19-9-48-24-1-3 8-15z" fill="#030303"/>
<path transform="translate(1248,1246)" d="m0 0 3 1 5 15-1 4-16 12-20 14-17 11-22 13-25 13-13 6-6 2-8-7-12-12 1-2 10-3 24-10 29-14 22-12 18-11 18-12 9-7z" fill="#030303"/>
<path transform="translate(864,1790)" d="m0 0h10l6 4 4 6 2 7-1 12-5 18-5 16v11l11-1-3 9-7 8-8 4-10 1-7-3-6-7-2-6v-15l10-28v-11l-3-3-8 1 1-6 6-9 9-6z" fill="#030303"/>
<path transform="translate(1329,484)" d="m0 0h3v3l2-3 12 15 12 16 16 24 8 13 12 21 8 15 11 23 13 32 10 28 10 35 2 9 6 3h15l13-4 7-2-2 5-3-1-11 8-7 8-4 9 1 14 6 18-1 2-8-13-4-4 3 26 2 25v59l-3 34-6 40-1 2-4-1v-7l6-36 3-27 1-15v-50l-2-35-3-20-8-5-5-1h-12l-18 6-5 1 3-3 9-5 8-6h2l2-4 3-5 3-8-2-16-5-13 1-3 11 16 5 6 1-1-7-25-12-36-8-21-13-29-12-23-13-22-16-24-12-16-10-13-7-8-2-5z" fill="#050505"/>
<path transform="translate(190,1747)" d="m0 0h5l-2 4-6 9-2 7 1 12v11l-3 8-6 5-5 2-9-2-6-5-3-8v-10l4-11 8-11 10-7 9-3z" fill="#030303"/>
<path transform="translate(1797,1747)" d="m0 0h9l6 4 4 7 1 9-2 11-5 9-9 10-10 5-11 3-4-1 1-3 5-4 3-9v-28l4-8 5-4z" fill="#030303"/>
<path transform="translate(151,1747)" d="m0 0h5l-2 4-5 6-3 9 1 14v11l-3 7-6 5-7 2-9-3-6-8-1-4v-9l4-12 6-9 10-8 11-4z" fill="#030303"/>
<path transform="translate(1836,1747)" d="m0 0h9l5 3 5 7 1 4v10l-5 14-9 10-9 6-12 4-5-1 3-5 4-5 2-8v-9l-1-4v-12l4-8 6-5z" fill="#030303"/>
<path transform="translate(1687,1736)" d="m0 0h11l8 3 4 5 1 2v9l-5 10-8 8-13 8-8 3-6-1-2-1v-5l7-11 5-11 4-14z" fill="#030303"/>
<path transform="translate(399,1809)" d="m0 0 7 1 7 6 2 3-1 10-5 15-6 11-7 6-6-1-4-6-1-4v-18l4-11 7-10z" fill="#FEFEFE"/>
<path transform="translate(1058,1809)" d="m0 0 7 1 7 6 2 4-1 9-6 17-6 10-6 5-6-1-4-6-1-4v-18l4-11 6-9z" fill="#FEFEFE"/>
<path transform="translate(890,98)" d="m0 0h17l5 3 4 6 1 9-4 7-5 4-6 1h-21l-1-2v-25l1-2z" fill="#FEFEFE"/>
<path transform="translate(445,252)" d="m0 0 9 1 6 5 3 6v7l-4 6-9 8-8 6-4-1-15-20 1-4 19-13z" fill="#FEFEFE"/>
<path transform="translate(764,111)" d="m0 0h9l5 3 4 5 1 4v7l-4 7-6 3-16 3h-7l-2-6-3-15v-6l10-3z" fill="#FEFEFE"/>
<path transform="translate(343,342)" d="m0 0 10 1 7 6 2 4v8l-4 6-9 10-4 5-4-1-13-12-5-5 1-4 17-17z" fill="#FEFEFE"/>
<path transform="translate(871,1750)" d="m0 0h11l6 4 4 5 2 5-1 8-4 6-7 5-11 1-7-3-5-6-1-3v-9l4-7 6-5z" fill="#030303"/>
<path transform="translate(1329,484)" d="m0 0h3v3l2-3 12 15 12 16 16 24 8 13 12 21 8 15 11 23 13 32 10 28 10 35 1 9h-3l1-3-7-25-12-36-8-21-13-29-12-23-13-22-16-24-12-16-10-13-7-8-2-5z" fill="#1A191A"/>
<path transform="translate(1487,717)" d="m0 0 4 5 7 9 6 3h11l13-5 2 1-9 6-6 5-3 8 1 9 4 11-1 3-7-10-1-4-9-3-6-1-10 3-7 2 4-4 8-6 3-4 1-5v-7l-5-13z" fill="#1B1A1B"/>
<path transform="translate(1453,758)" d="m0 0 3 1 3 25 2 25v59l-3 34-6 40-1 2-4-1v-7l6-36 3-27 1-15v-50l-2-35z" fill="#1B1A1B"/>
<path transform="translate(1388,1805)" d="m0 0 7 1 5 5v8l-6 12-6 4h-8l-7-3-1-5 4-11 4-6z" fill="#FEFEFE"/>
<path transform="translate(638,1805)" d="m0 0 7 1 4 5v8l-6 12-5 4h-8l-8-3-1-5 4-11 6-8z" fill="#FEFEFE"/>
<path transform="translate(1203,1805)" d="m0 0h6l5 4 1 2v8l-5 10-5 5-2 1h-8l-7-3v-9l6-12 5-4z" fill="#FEFEFE"/>
<path transform="translate(1482,774)" d="m0 0 3 3 4 8 4 3h14l6-1-1 3-8 2-5 5-2 3v12l1 7-3-2-4-10-5-4-9-1-10 1 1-2 9-4 6-7v-8z" fill="#1A191A"/>
<path transform="translate(1588,631)" d="m0 0h35l-5 5-8 7-8 6-4 4-3-1z" fill="#FEFEFE"/>
<path transform="translate(570,213)" d="m0 0 5 3 19 19 1 3-16 7-5 2-4-30z" fill="#FEFEFE"/>
<path transform="translate(1393,575)" d="m0 0 3 1 8 16 9 19 13 32 10 28 10 35 1 9h-3l1-3-7-25-12-36-8-21-13-29-12-23z" fill="#1C1B1C"/>
<path transform="translate(489,1057)" d="m0 0 4 1 4 7 5 16v4l-5-1-8-4-4-7 1-9z" fill="#D81712"/>
<path transform="translate(1196,367)" d="m0 0 5 2 18 11 19 14 14 11 13 11 8 7 7 6h-3l-11-8v-2l-4-2-8-6-8-4-7-8-6-4-4-4-6-3-1-2-4-2v-2l-5-1-3-3-3-1-3-3-8-5z" fill="#1C1B1C"/>
<path transform="translate(286,1657)" d="m0 0 4 1-1 4-22 11-16 6-3-1 21-11z" fill="#100F10"/>
<path transform="translate(1358,1139)" d="m0 0 1 2-6 9-3 4-4 5h-2l-2 4-7 6-1 3-4 3 1-5 9-11 11-14 5-5z" fill="#1B1A1B"/>
<path transform="translate(1450,926)" d="m0 0 1 3 3-1-2 14-1 2-4-1v-7l2-9z" fill="#1C1B1C"/>
<path transform="translate(267,1668)" d="m0 0 2 1zm-2 1 5 1-3 3-16 6-3-1z" fill="#141414"/>
<path transform="translate(1290,439)" d="m0 0 6 4 16 16v2h-2v-2l-4-2v-2l-4-2-5-6-7-6z" fill="#1C1B1C"/>
<path transform="translate(1461,758)" d="m0 0 3 1 5 14-1 2-8-13z" fill="#161516"/>
<path transform="translate(286,1657)" d="m0 0 4 1-5 4-3 2-3-1v-2z" fill="#161516"/>
<path transform="translate(1482,774)" d="m0 0 3 3 2 4-1 3-1 5h-1l-2-10z" fill="#1C1B1C"/>
<path transform="translate(1427,691)" d="m0 0 4 4 3 6h-3l-2-2-2-5z" fill="#1C1B1C"/>
</svg>
